<svg id="VM_LOGO" data-name="VM LOGO" xmlns="http://www.w3.org/2000/svg" width="119.014" height="71.233" viewBox="0 0 119.014 71.233">
  <defs>
    <style>
      .cls-1 {
        fill: #c39259;
      }
    </style>
  </defs>
  <path id="Path_11351" data-name="Path 11351" class="cls-1" d="M41.493.09,25.019,29.867,8.632.444H5.638L0,10.131,12.334,33.126,25.105,56.117,44.311,20.881,56.027.09ZM2.644,9.956l4.4-7.133L23.789,32.332l-4.567,7.927ZM25.019,50.938l-4.408-8.176L42.9,2.858h8.807Z" transform="translate(0 -0.074)"/>
  <path id="Path_11352" data-name="Path 11352" class="cls-1" d="M388.627,2.585V51.254l-6.354.093V22.5L367.042,39.04l-4.283-4.766,17.1-18.5V12.222l-18.6,20.635L331.284,0V53.523h2.43l-.28-47.469,26.257,28.313-4.485,4.672L340.255,23.077l-.28,30.462h2.43V28.481l18.689,20.557L379.781,28.2l.187,25.307H390.9V.016Zm-27.565,42.89-4.283-4.859,4.392-4.672,4.392,4.672Z" transform="translate(-273.626)"/>
  <path id="Path_11353" data-name="Path 11353" class="cls-1" d="M91.027,361.92l3.117,7.283.19-.446-2.915-6.837Zm2.551-.158-1.425.2a21.8,21.8,0,0,0,.957,2.594l.756,1.762q.25.6.745,1.545.2-.343.462-.914t.473-1.066l.848-2.018a19.477,19.477,0,0,0,.691-1.9l-1.648-.2v-.054h3.231v.043l-.99.212a14.654,14.654,0,0,0-.936,1.958l-1.849,4.389a16.005,16.005,0,0,0-.593,1.583h-.076q-.315-.9-.669-1.7l-1.73-4.036a21.8,21.8,0,0,0-1.088-2.2l-.957-.19v-.054h3.8Zm9.986-.168a4.809,4.809,0,0,1,2.007.386,3.964,3.964,0,0,1,1.387,1.012,4.127,4.127,0,0,1,.794,1.333,3.937,3.937,0,0,1,.256,1.349,3.841,3.841,0,0,1-.288,1.452,4.065,4.065,0,0,1-2.225,2.246,5.078,5.078,0,0,1-4.313-.277,4.059,4.059,0,0,1-1.5-1.572,3.818,3.818,0,0,1-.179-3.356,4.092,4.092,0,0,1,.892-1.322,4.194,4.194,0,0,1,1.4-.919A4.648,4.648,0,0,1,103.563,361.594Zm.033.381a2.93,2.93,0,0,0-1.561.441,3.117,3.117,0,0,0-1.137,1.273,4.846,4.846,0,0,0,.038,4.025,3.115,3.115,0,0,0,1.18,1.246,3.027,3.027,0,0,0,1.49.4,2.989,2.989,0,0,0,1.186-.239,3.04,3.04,0,0,0,1-.7,3.218,3.218,0,0,0,.685-1.131,4.29,4.29,0,0,0,.25-1.5,5.116,5.116,0,0,0-.261-1.806,3.371,3.371,0,0,0-.767-1.18,2.672,2.672,0,0,0-.979-.631A3.219,3.219,0,0,0,103.6,361.975Zm.277-.223v.054a3.556,3.556,0,0,1,1.061.25,2.993,2.993,0,0,1,1,.653,3.11,3.11,0,0,1,.751,1.191,5.618,5.618,0,0,1,.114,3.127,3.614,3.614,0,0,1-.533,1.164,2.943,2.943,0,0,1-.957.881,3.437,3.437,0,0,1-1.42.43v.06a3.8,3.8,0,0,0,1.322-.3,3.406,3.406,0,0,0,1.11-.761,3.609,3.609,0,0,0,.772-1.218,4.33,4.33,0,0,0,.283-1.6,4.544,4.544,0,0,0-.294-1.7,3.432,3.432,0,0,0-1.925-1.969A3.6,3.6,0,0,0,103.873,361.752Zm-.533.054v-.054a3.7,3.7,0,0,0-1.485.326,4.18,4.18,0,0,0-1.273.87,4.1,4.1,0,0,0-.859,1.251,3.639,3.639,0,0,0,.207,3.318,4.106,4.106,0,0,0,1.425,1.452,3.964,3.964,0,0,0,2,.593v-.06a3.812,3.812,0,0,1-3.1-2.061,3.833,3.833,0,0,1-.419-1.735,4.158,4.158,0,0,1,.245-1.42,3.793,3.793,0,0,1,.707-1.213,3.647,3.647,0,0,1,1.115-.865A3.962,3.962,0,0,1,103.34,361.806Zm6.853.1v7.549h.381v-7.549Zm-1.648-.147v-.054h4.112v.054l-1.349.19q-.071.528-.12,1.425t-.049,1.561v2.339q0,.843.087,1.757a6.337,6.337,0,0,0,1.92.294,6.61,6.61,0,0,0,.881-.054,4.237,4.237,0,0,0,.566-.1l.566-1.485h.081l-.255,1.985h-6.451v-.054l1.3-.19a6.079,6.079,0,0,0,.109-.93q.049-.669.076-1.381t.027-1.006v-1.371q0-.451-.022-1.033t-.054-1.028a6.879,6.879,0,0,0-.076-.723Zm8.474.158v7.549h.392V361.92Zm1.827,3.16-.245.245,3.41,4.145h.457Zm.669,4.536v.054h-4.074v-.054l1.234-.169q.065-.451.109-1.088t.065-1.235q.027-.6.027-1.088V364.5q0-.647-.049-1.387t-.109-1.153l-1.278-.2v-.054h4.085v.054l-1.414.2q-.054.391-.092,1.05t-.038.952v1.4a9.67,9.67,0,0,0,.832-.658q.462-.408,1.039-.952a23.138,23.138,0,0,0,1.735-1.795l-1.278-.2v-.054h3.105v.054l-1.071.19a5.26,5.26,0,0,0-.457.381q-.321.288-.772.713t-.979.914q-.528.489-.8.734a9.915,9.915,0,0,0,.984,1.322l1.2,1.474a15.892,15.892,0,0,0,1.838,1.936l1,.19v.054h-3.807v-.054l1.033-.19a14.473,14.473,0,0,0-.87-1.267q-.533-.712-1.137-1.425t-1.1-1.251l-.517.479v1.191q0,.316.044,1.115t.1,1.158Zm6.614-7.7v7.538h.375V361.92Zm-1.653-.158v-.054h5.792l.136,1.692h-.087l-.392-1.327q-.462-.033-1.039-.033a7.858,7.858,0,0,0-1.692.147,16.572,16.572,0,0,0-.109,2.012q0,.707.044,1.148.859.049,1.093.049a11.768,11.768,0,0,0,1.267-.071l.245-.924h.092v2.317h-.092l-.256-.979a9.2,9.2,0,0,0-1.044-.054,11.9,11.9,0,0,0-1.305.065,7.883,7.883,0,0,0-.044,1.235q.011.773.027,1.278t.06.865a6.16,6.16,0,0,0,1.74.2,9.3,9.3,0,0,0,1.044-.049l.435-1.311h.076l-.12,1.7h-5.858v-.054l1.3-.19a6.223,6.223,0,0,0,.076-.68q.038-.457.065-1.023t.038-.952q.011-.386.011-.674v-1.371q0-.261-.016-.74t-.049-1q-.033-.517-.092-1.034Zm7.957,4.667v-1.681q0-.647-.044-1.479t-.109-1.316l-1.305-.19v-.054h3.573a2.853,2.853,0,0,1,1.621.408,2.274,2.274,0,0,1,1.077,1.817,1.805,1.805,0,0,1-.848,1.566,1.783,1.783,0,0,1-.767.283v.022a1.8,1.8,0,0,1,.615.392,4.189,4.189,0,0,1,.435.539q.245.343.647.941t.647.935a5.009,5.009,0,0,0,.451.549,1.308,1.308,0,0,0,.9.457v.054h-.946a1.684,1.684,0,0,1-1.262-.479,3.888,3.888,0,0,1-.37-.435q-.179-.256-.576-.832t-.664-.952a4.458,4.458,0,0,0-.424-.533,1.328,1.328,0,0,0-.43-.31,1.5,1.5,0,0,0-.566-.081,2.877,2.877,0,0,0-.533.038,5.985,5.985,0,0,0-.033.653v1.006a13.653,13.653,0,0,0,.136,1.681l1.354.19v.054h-4.041v-.054l1.278-.19q.082-.549.131-1.545T132.433,366.429Zm1.082-2.485v.892q0,.473.033.881a4.344,4.344,0,0,0,.615.033,2.275,2.275,0,0,0,1.12-.239,1.394,1.394,0,0,0,.609-.62,2.017,2.017,0,0,0,.005-1.675,1.984,1.984,0,0,0-.457-.642,1.964,1.964,0,0,0-.626-.408,1.7,1.7,0,0,0-.674-.147,2.2,2.2,0,0,0-.495.044q-.049.316-.092.9T133.515,363.944Zm1.958,2.7,1.18,1.713a4.168,4.168,0,0,0,.756.865,1.272,1.272,0,0,0,.783.261v-.054q-.43-.125-1.1-1.1l-.946-1.36a3.471,3.471,0,0,0-.571-.675,1.4,1.4,0,0,0-.653-.3l-.022.044A2.02,2.02,0,0,1,135.473,366.641Zm-2.9-4.721v7.538h.392V361.92Zm1.49-.092v.054a2.215,2.215,0,0,1,1.245.364,2.033,2.033,0,0,1,.734.843,2.367,2.367,0,0,1,.229.99,1.64,1.64,0,0,1-.946,1.572l.033.022a1.643,1.643,0,0,0,.914-.6,1.729,1.729,0,0,0,.364-1.1,2.037,2.037,0,0,0-.2-.9,1.937,1.937,0,0,0-.533-.68,2.384,2.384,0,0,0-.745-.413,2.555,2.555,0,0,0-.832-.141Zm10.8.092,3.932,7.261.19-.37-3.742-6.891Zm7.924.354-.315.636.479,6.548h.392l-.533-7.185Zm-9.279-.566h2.339q.294.653.5,1.066t.5.968l1.528,2.834a14.33,14.33,0,0,0,.946,1.534q.315-.511,1-1.828l1.392-2.616a18.813,18.813,0,0,0,.914-1.958h2.328v.054l-1.447.2q-.033.478-.033.957,0,.5.092,2.05t.234,2.883a7.487,7.487,0,0,0,.25,1.572l1,.19v.054h-3.731v-.054l1.294-.19q.044-.414.044-1.115,0-.386-.027-1.006t-.087-1.43q-.054-.811-.136-1.5a6.731,6.731,0,0,0-.152-.925q-.256.408-.533.935l-2.116,3.965q-.5.974-.669,1.392h-.076q-.114-.25-.392-.8t-.446-.859l-1.773-3.285q-.451-.838-.745-1.338-.038.218-.114.99t-.147,1.675q-.065.9-.1,1.539t-.033,1q0,.256.022.745l1.033.2v.054H143.5v-.054l1.033-.2a11.526,11.526,0,0,0,.207-1.507q.131-1.278.229-2.627t.1-1.958q0-.212-.022-.658a2.265,2.265,0,0,0-.609-.7l-.925-.2Zm16.85,7.827v.071a3.988,3.988,0,0,0,1.11-.207,2.122,2.122,0,0,0,.772-.479,1.923,1.923,0,0,0,.462-.772,3.427,3.427,0,0,0,.152-1.071v-5.167h-.381v5.156a2.693,2.693,0,0,1-.5,1.719A2.267,2.267,0,0,1,160.356,369.535Zm-.712.071v-.071a3.755,3.755,0,0,1-1.343-.3,2.074,2.074,0,0,1-.9-.783,2.387,2.387,0,0,1-.321-1.273v-5.265H156.7v5.455a1.969,1.969,0,0,0,.7,1.593A3.77,3.77,0,0,0,159.644,369.606Zm-3.1-2.241v-3.03q0-1.012-.131-2.393l-1.137-.18v-.054h3.965v.054l-1.436.18q-.054.381-.087.914t-.06,1.137q-.022.6-.022.968V367.2a2.318,2.318,0,0,0,.321,1.289,1.773,1.773,0,0,0,.854.685,3.3,3.3,0,0,0,1.175.2,2.478,2.478,0,0,0,1.713-.555,2.288,2.288,0,0,0,.626-1.8v-2.328q0-.62-.044-1.463t-.109-1.289l-1.43-.18v-.054h3.943v.054l-1.11.18a8.436,8.436,0,0,0-.12,1.18q-.038.821-.038,1.381v2.638a3.249,3.249,0,0,1-.147,1.044,1.9,1.9,0,0,1-.457.74,2.541,2.541,0,0,1-.446.359,2.46,2.46,0,0,1-.593.256,4.449,4.449,0,0,1-.783.158,9.379,9.379,0,0,1-1.05.049,6.175,6.175,0,0,1-1.778-.229,2.377,2.377,0,0,1-1.191-.761A2.15,2.15,0,0,1,156.544,367.365Zm8.305-5.6v-.054H167.6q.272.37.7.892t.772.9l2.437,2.709q.484.528.75.816t.7.7q.032-.375.043-.7t.011-.615v-2.35a14.422,14.422,0,0,0-.125-2.094l-1.322-.2v-.054H174.8v.054l-1.321.212a14.955,14.955,0,0,0-.1,1.947v5.961h-.054q-.832-1.055-1.648-1.974l-3.328-3.71q-.74-.788-1.262-1.256a13.521,13.521,0,0,0-.076,1.381v3.443a14.881,14.881,0,0,0,.109,1.648l1.381.2v.054h-3.307v-.054l1.338-.19a9.394,9.394,0,0,0,.092-1.115q.027-.724.027-1.289v-2.665q0-.473-.016-.935t-.06-.925l-.723-.533Zm1.626.147,6.57,7.3V368.7l-6.114-6.793Zm10.045.011v7.549h.392V361.92Zm1.827,3.16-.245.245,3.41,4.145h.457Zm.669,4.536v.054h-4.074v-.054l1.235-.169q.065-.451.109-1.088t.065-1.235q.027-.6.027-1.088V364.5q0-.647-.049-1.387t-.109-1.153l-1.278-.2v-.054h4.084v.054l-1.414.2q-.055.391-.093,1.05t-.038.952v1.4a9.7,9.7,0,0,0,.832-.658q.462-.408,1.039-.952a23.163,23.163,0,0,0,1.735-1.795l-1.278-.2v-.054h3.106v.054l-1.071.19a5.26,5.26,0,0,0-.457.381q-.321.288-.772.713t-.979.914q-.527.489-.8.734a9.915,9.915,0,0,0,.984,1.322l1.2,1.474a15.892,15.892,0,0,0,1.838,1.936l1,.19v.054h-3.807v-.054l1.033-.19a14.484,14.484,0,0,0-.87-1.267q-.533-.712-1.137-1.425t-1.1-1.251l-.517.479v1.191q0,.316.044,1.115t.1,1.158Zm9.708-8.022a4.809,4.809,0,0,1,2.007.386,3.962,3.962,0,0,1,1.387,1.012,4.128,4.128,0,0,1,.794,1.333,3.935,3.935,0,0,1,.256,1.349,3.841,3.841,0,0,1-.288,1.452,4.065,4.065,0,0,1-2.225,2.246,5.078,5.078,0,0,1-4.313-.277,4.059,4.059,0,0,1-1.5-1.572,3.819,3.819,0,0,1-.179-3.356,4.092,4.092,0,0,1,.892-1.322,4.194,4.194,0,0,1,1.4-.919A4.647,4.647,0,0,1,188.726,361.594Zm.033.381a2.93,2.93,0,0,0-1.561.441,3.117,3.117,0,0,0-1.137,1.273,4.844,4.844,0,0,0,.038,4.025,3.114,3.114,0,0,0,1.18,1.246,3.027,3.027,0,0,0,1.49.4,2.989,2.989,0,0,0,1.186-.239,3.042,3.042,0,0,0,1-.7,3.217,3.217,0,0,0,.685-1.131,4.287,4.287,0,0,0,.25-1.5,5.116,5.116,0,0,0-.261-1.806,3.371,3.371,0,0,0-.767-1.18,2.67,2.67,0,0,0-.979-.631A3.22,3.22,0,0,0,188.758,361.975Zm.277-.223v.054a3.554,3.554,0,0,1,1.061.25,2.994,2.994,0,0,1,1,.653,3.111,3.111,0,0,1,.751,1.191,5.621,5.621,0,0,1,.114,3.127,3.61,3.61,0,0,1-.533,1.164,2.943,2.943,0,0,1-.957.881,3.436,3.436,0,0,1-1.419.43v.06a3.8,3.8,0,0,0,1.322-.3,3.406,3.406,0,0,0,1.11-.761,3.606,3.606,0,0,0,.772-1.218,4.325,4.325,0,0,0,.283-1.6,4.544,4.544,0,0,0-.294-1.7,3.431,3.431,0,0,0-1.925-1.969A3.6,3.6,0,0,0,189.036,361.752Zm-.533.054v-.054a3.7,3.7,0,0,0-1.485.326,4.18,4.18,0,0,0-1.273.87,4.1,4.1,0,0,0-.859,1.251,3.64,3.64,0,0,0,.207,3.318,4.107,4.107,0,0,0,1.425,1.452,3.964,3.964,0,0,0,2,.593v-.06a3.813,3.813,0,0,1-3.1-2.061,3.835,3.835,0,0,1-.419-1.735,4.157,4.157,0,0,1,.245-1.42,3.8,3.8,0,0,1,.707-1.213,3.647,3.647,0,0,1,1.115-.865A3.962,3.962,0,0,1,188.5,361.806Z" transform="translate(-74.155 -298.661)"/>
</svg>
